HIERARCHY
ROOT Hips
{
	OFFSET 0.00 0.00 0.00
	CHANNELS 6 Xposition Yposition Zposition Xrotation Yrotation Zrotation
	JOINT Spine
	{
		OFFSET 0.00000 1.15266 1.72900
		CHANNELS 3 Xrotation Yrotation Zrotation
		JOINT Spine1
		{
			OFFSET 0.00000 0.40032 2.27031
			CHANNELS 3 Xrotation Yrotation Zrotation
			JOINT Spine2
			{
				OFFSET 0.00000 0.20092 2.29656
				CHANNELS 3 Xrotation Yrotation Zrotation
				JOINT Spine3
				{
					OFFSET 0.00000 0.00000 2.30533
					CHANNELS 3 Xrotation Yrotation Zrotation
					JOINT Neck
					{
						OFFSET 0.00000 -0.86449 6.05149
						CHANNELS 3 Xrotation Yrotation Zrotation
						JOINT Head
						{
							OFFSET 0.00000 -0.55043 3.12167
							CHANNELS 3 Xrotation Yrotation Zrotation
							End Site
							{
								OFFSET 0.00000 0.00000 3.73175
							}
						}
					}
					JOINT RightShoulder
					{
						OFFSET -0.78828 -1.31380 4.25672
						CHANNELS 3 Xrotation Yrotation Zrotation
						JOINT RightArm
						{
							OFFSET -3.91513 0.00000 0.00000
							CHANNELS 3 Xrotation Yrotation Zrotation
							JOINT RightForeArm
							{
								OFFSET -6.91491 0.00000 0.00000
								CHANNELS 3 Xrotation Yrotation Zrotation
								JOINT RightHand
								{
									OFFSET -6.09622 0.00000 0.00000
									CHANNELS 3 Xrotation Yrotation Zrotation
									JOINT RightHandEnd
									{
										OFFSET -1.74995 0.00000 0.00000
										CHANNELS 3 Xrotation Yrotation Zrotation
										End Site
										{
											OFFSET -1.74995 0.00000 0.00000
										}
									}
									JOINT RightHandThumb1
									{
										OFFSET -0.69998 -1.16663 -0.46665
										CHANNELS 3 Yrotation Xrotation Zrotation
										End Site
										{
											OFFSET -1.69032 -0.45292 0.00000
										}
									}
								}
							}
						}
					}
					JOINT LeftShoulder
					{
						OFFSET 0.78828 -1.31380 4.25672
						CHANNELS 3 Xrotation Yrotation Zrotation
						JOINT LeftArm
						{
							OFFSET 3.91513 0.00000 0.00000
							CHANNELS 3 Xrotation Yrotation Zrotation
							JOINT LeftForeArm
							{
								OFFSET 6.91491 0.00000 0.00000
								CHANNELS 3 Xrotation Yrotation Zrotation
								JOINT LeftHand
								{
									OFFSET 6.09622 0.00000 0.00000
									CHANNELS 3 Xrotation Yrotation Zrotation
									JOINT LeftHandEnd
									{
										OFFSET 1.74995 0.00000 0.00000
										CHANNELS 3 Xrotation Yrotation Zrotation
										End Site
										{
											OFFSET 1.74995 0.00000 0.00000
										}
									}
									JOINT LeftHandThumb1
									{
										OFFSET 0.69998 -1.16663 -0.46665
										CHANNELS 3 Yrotation Xrotation Zrotation
										End Site
										{
											OFFSET 1.69032 -0.45292 0.00000
										}
									}
								}
							}
						}
					}
				}
			}
		}
	}
	JOINT RightUpLeg
	{
		OFFSET -2.33857 0.00000 -0.68318
		CHANNELS 3 Xrotation Yrotation Zrotation
		JOINT RightLeg
		{
			OFFSET 0.00000 0.00000 -10.74496
			CHANNELS 3 Xrotation Yrotation Zrotation
			JOINT RightFoot
			{
				OFFSET 0.00000 0.00000 -10.93085
				CHANNELS 3 Xrotation Yrotation Zrotation
				JOINT RightToeBase
				{
					OFFSET 0.00000 -4.08727 -1.48765
					CHANNELS 3 Xrotation Yrotation Zrotation
					End Site
					{
						OFFSET 0.00000 -1.89187 -0.00000
					}
				}
			}
		}
	}
	JOINT LeftUpLeg
	{
		OFFSET 2.33857 0.00000 -0.68318
		CHANNELS 3 Xrotation Yrotation Zrotation
		JOINT LeftLeg
		{
			OFFSET 0.00000 0.00000 -10.74496
			CHANNELS 3 Xrotation Yrotation Zrotation
			JOINT LeftFoot
			{
				OFFSET 0.00000 0.00000 -10.93085
				CHANNELS 3 Xrotation Yrotation Zrotation
				JOINT LeftToeBase
				{
					OFFSET 0.00000 -4.08727 -1.48765
					CHANNELS 3 Xrotation Yrotation Zrotation
					End Site
					{
						OFFSET 0.00000 -1.89187 -0.00000
					}
				}
			}
		}
	}
}
MOTION
Frames: 10
Frame Time: 0.008342
 -1.9852 -114.6422 24.4411 -0.8242 -1.4894 167.1556 4.8497 -2.1782 0.1685 1.3813 -2.9946 -0.2768 5.3262 3.4726 6.3016 -3.6501 2.0161 -0.0148 -18.7736 3.8692 -3.8062 9.3377 2.1254 -10.0458 -4.4305 -1.8670 0.8035 -5.5847 3.9439 1.8775 0.0000 0.0000 12.2243 -1.6765 0.0758 -8.2560 -0.0000 0.0000 -0.0000 -0.0000 -0.0000 -0.0000 -6.3966 6.0453 0.5742 -0.0611 -3.4180 -8.3874 -0.0000 -0.0000 -0.4233 2.2066 3.6297 0.3650 0.0000 0.0000 -0.0000 -0.0000 -0.0000 0.0000 -1.2431 1.7319 -9.9615 2.2158 0.0000 0.0000 -1.8981 -1.2899 12.0203 0.6672 0.0000 0.0000 2.1337 -3.6068 5.3806 -1.4643 0.0000 -0.0000 -4.9968 3.3523 15.8444 -2.4767 0.0000 -0.0000
 -1.9836 -114.6465 24.4412 -0.8579 -1.4857 167.1405 4.8538 -2.1739 0.1694 1.3778 -2.9877 -0.2751 5.3166 3.4648 6.2997 -3.6534 2.0092 -0.0098 -18.8018 3.8491 -3.8094 9.2894 2.1076 -10.0390 -4.4164 -1.8321 0.8009 -5.5934 3.9167 1.8674 0.0000 0.0000 12.2223 -1.6921 0.0618 -8.2682 -0.0000 0.0000 -0.0000 -0.0000 -0.0000 0.0000 -6.3699 6.0085 0.5542 -0.0681 -3.3904 -8.3793 -0.0000 -0.0000 -0.4278 2.2365 3.6053 0.4094 0.0000 0.0000 0.0000 -0.0000 0.0000 -0.0000 -1.2920 1.7228 -9.9573 2.2188 0.0000 0.0000 -1.8752 -1.2983 12.0289 0.6525 0.0000 0.0000 2.0920 -3.6184 5.3911 -1.4633 0.0000 -0.0000 -4.9938 3.3723 15.8448 -2.4767 0.0000 -0.0000
 -1.9814 -114.6519 24.4414 -0.8976 -1.4802 167.1218 4.8618 -2.1661 0.1698 1.3737 -2.9761 -0.2725 5.3058 3.4512 6.2964 -3.6599 2.0001 -0.0051 -18.8367 3.8218 -3.8092 9.2257 2.0833 -10.0311 -4.3913 -1.7956 0.8018 -5.5979 3.8958 1.8540 0.0000 0.0000 12.2176 -1.7077 0.0399 -8.2827 -0.0000 0.0000 -0.0000 -0.0000 -0.0000 -0.0000 -6.3326 5.9700 0.5329 -0.0772 -3.3681 -8.3714 -0.0000 -0.0000 -0.4331 2.2807 3.5846 0.4698 0.0000 0.0000 0.0000 0.0000 0.0000 0.0000 -1.3493 1.7116 -9.9522 2.2192 0.0000 0.0000 -1.8498 -1.3015 12.0399 0.6425 0.0000 0.0000 2.0432 -3.6314 5.4033 -1.4653 0.0000 -0.0000 -4.9856 3.3957 15.8471 -2.4754 0.0000 -0.0000
 -1.9785 -114.6582 24.4417 -0.9396 -1.4769 167.1007 4.8755 -2.1575 0.1707 1.3723 -2.9584 -0.2694 5.2914 3.4295 6.2923 -3.6666 1.9899 -0.0010 -18.8799 3.7871 -3.8079 9.1479 2.0526 -10.0204 -4.3632 -1.7442 0.8036 -5.5978 3.8623 1.8358 0.0000 0.0000 12.2132 -1.7192 0.0200 -8.2991 -0.0000 0.0000 -0.0000 -0.0000 0.0000 -0.0000 -6.2936 5.9165 0.5086 -0.0828 -3.3322 -8.3623 -0.0000 -0.0000 -0.4381 2.3411 3.5558 0.5441 -0.0000 -0.0000 -0.0000 -0.0000 0.0000 0.0000 -1.4060 1.6943 -9.9489 2.2107 0.0000 0.0000 -1.8195 -1.2986 12.0548 0.6380 0.0000 0.0000 1.9929 -3.6494 5.4160 -1.4706 0.0000 -0.0000 -4.9729 3.4224 15.8515 -2.4738 0.0000 -0.0000
 -1.9753 -114.6656 24.4420 -0.9904 -1.4678 167.0748 4.8930 -2.1421 0.1715 1.3648 -2.9443 -0.2663 5.2755 3.4133 6.2879 -3.6742 1.9750 0.0058 -18.9296 3.7472 -3.8063 9.0567 2.0157 -10.0079 -4.3294 -1.6882 0.8055 -5.5935 3.8300 1.8138 0.0000 0.0000 12.2078 -1.7360 -0.0013 -8.3140 0.0000 0.0000 0.0000 -0.0000 -0.0000 -0.0000 -6.2504 5.8582 0.4817 -0.0892 -3.2950 -8.3552 -0.0000 -0.0000 -0.4407 2.4120 3.5261 0.6307 -0.0000 -0.0000 -0.0000 0.0000 -0.0000 0.0000 -1.4766 1.6791 -9.9458 2.2031 0.0000 0.0000 -1.7912 -1.2880 12.0750 0.6414 0.0000 0.0000 1.9287 -3.6649 5.4346 -1.4732 0.0000 -0.0000 -4.9553 3.4491 15.8548 -2.4690 0.0000 -0.0000
 -1.9717 -114.6744 24.4424 -1.0617 -1.4561 167.0462 4.8965 -2.1265 0.1722 1.3569 -2.9249 -0.2619 5.2609 3.3911 6.2824 -3.6829 1.9588 0.0133 -18.9870 3.7017 -3.8032 8.9541 1.9748 -9.9936 -4.2941 -1.6291 0.8076 -5.5851 3.7988 1.7892 0.0000 0.0000 12.2015 -1.7671 -0.0218 -8.3265 0.0000 0.0000 0.0000 -0.0000 -0.0000 -0.0000 -6.2069 5.7984 0.4536 -0.0957 -3.2587 -8.3487 -0.0000 -0.0000 -0.4416 2.4871 3.4961 0.7285 0.0000 -0.0000 -0.0000 -0.0000 0.0000 0.0000 -1.5713 1.6593 -9.9431 2.1947 0.0000 0.0000 -1.7615 -1.2697 12.0980 0.6524 0.0000 0.0000 1.8367 -3.6846 5.4582 -1.4685 0.0000 -0.0000 -4.9360 3.4760 15.8555 -2.4631 0.0000 -0.0000
 -1.9677 -114.6838 24.4429 -1.1389 -1.4422 167.0158 4.9006 -2.1053 0.1727 1.3444 -2.9084 -0.2576 5.2475 3.3679 6.2770 -3.6919 1.9423 0.0198 -19.0469 3.6513 -3.7983 8.8418 1.9309 -9.9773 -4.2576 -1.5653 0.8110 -5.5749 3.7650 1.7630 0.0000 0.0000 12.1942 -1.8198 -0.0397 -8.3331 0.0000 0.0000 0.0000 -0.0000 -0.0000 -0.0000 -6.1635 5.7338 0.4267 -0.1027 -3.2192 -8.3439 -0.0000 -0.0000 -0.4394 2.5595 3.4643 0.8331 0.0000 0.0000 0.0000 0.0000 0.0000 0.0000 -1.6727 1.6384 -9.9426 2.1839 0.0000 0.0000 -1.7332 -1.2446 12.1250 0.6707 0.0000 0.0000 1.7364 -3.7045 5.4818 -1.4630 0.0000 -0.0000 -4.9132 3.5005 15.8583 -2.4545 0.0000 -0.0000
 -1.9634 -114.6929 24.4434 -1.2077 -1.4308 166.9854 4.9112 -2.0880 0.1733 1.3408 -2.8820 -0.2527 5.2254 3.3421 6.2692 -3.7003 1.9199 0.0277 -19.1034 3.5991 -3.7912 8.7227 1.8848 -9.9600 -4.2155 -1.5004 0.8136 -5.5669 3.7357 1.7390 0.0000 0.0000 12.1840 -1.9084 -0.0586 -8.3313 0.0000 0.0000 0.0000 0.0000 -0.0000 0.0000 -6.1186 5.6669 0.3989 -0.1097 -3.1767 -8.3373 -0.0000 -0.0000 -0.4349 2.6196 3.4310 0.9407 0.0000 -0.0000 0.0000 -0.0000 0.0000 0.0000 -1.7590 1.6151 -9.9473 2.1637 0.0000 0.0000 -1.7047 -1.2148 12.1575 0.6950 0.0000 0.0000 1.6469 -3.7256 5.5045 -1.4591 0.0000 -0.0000 -4.8892 3.5228 15.8627 -2.4433 0.0000 -0.0000
 -1.9590 -114.7029 24.4439 -1.2982 -1.4133 166.9532 4.9046 -2.0633 0.1736 1.3295 -2.8628 -0.2484 5.2080 3.3167 6.2625 -3.7097 1.8985 0.0353 -19.1599 3.5454 -3.7832 8.5992 1.8396 -9.9410 -4.1765 -1.4394 0.8159 -5.5608 3.7121 1.7171 0.0000 0.0000 12.1726 -2.0402 -0.0750 -8.3196 0.0000 -0.0000 -0.0000 -0.0000 0.0000 -0.0000 -6.0778 5.6035 0.3737 -0.1173 -3.1371 -8.3314 -0.0000 -0.0000 -0.4275 2.6589 3.3954 1.0473 0.0000 -0.0000 -0.0000 -0.0000 -0.0000 0.0000 -1.8742 1.5925 -9.9530 2.1505 0.0000 0.0000 -1.6798 -1.1803 12.1925 0.7237 0.0000 0.0000 1.5268 -3.7464 5.5315 -1.4447 0.0000 -0.0000 -4.8671 3.5422 15.8638 -2.4295 0.0000 -0.0000
 -1.9546 -114.7123 24.4443 -1.3836 -1.3976 166.9215 4.9009 -2.0415 0.1737 1.3217 -2.8378 -0.2432 5.1848 3.2884 6.2537 -3.7182 1.8757 0.0423 -19.2093 3.4907 -3.7728 8.4742 1.7962 -9.9211 -4.1434 -1.3712 0.8222 -5.5599 3.6788 1.6919 0.0000 0.0000 12.1635 -2.2147 -0.0859 -8.2981 -0.0000 0.0000 -0.0000 -0.0000 -0.0000 0.0000 -6.0387 5.5388 0.3518 -0.1241 -3.0944 -8.3233 -0.0000 -0.0000 -0.4195 2.6697 3.3563 1.1494 -0.0000 -0.0000 -0.0000 0.0000 0.0000 -0.0000 -1.9805 1.5690 -9.9621 2.1341 0.0000 0.0000 -1.6564 -1.1445 12.2308 0.7547 0.0000 0.0000 1.4137 -3.7675 5.5571 -1.4307 0.0000 -0.0000 -4.8470 3.5586 15.8660 -2.4131 0.0000 -0.0000
